<mxfile host="app.diagrams.net" modified="2022-01-17T11:00:40.841Z" agent="5.0 (Windows NT 10.0; Win64; x64) AppleWebKit/537.36 (KHTML, like Gecko) Chrome/97.0.4692.71 Safari/537.36 Edg/97.0.1072.62" etag="wZCBRHxjLx-nVTyebuoL" version="16.2.7" type="github">
  <diagram id="n2OYC5LQOtsgvxPAddhD" name="第 1 页">
    <mxGraphModel dx="1038" dy="667" grid="1" gridSize="10" guides="1" tooltips="1" connect="1" arrows="1" fold="1" page="1" pageScale="1" pageWidth="827" pageHeight="1169" math="1" shadow="0">
      <root>
        <mxCell id="0" />
        <mxCell id="1" parent="0" />
        <mxCell id="KVpj3WEin9Y6bcMQxTFN-1" value="" style="endArrow=classic;html=1;rounded=0;" edge="1" parent="1">
          <mxGeometry width="50" height="50" relative="1" as="geometry">
            <mxPoint x="350" y="360" as="sourcePoint" />
            <mxPoint x="600" y="360" as="targetPoint" />
          </mxGeometry>
        </mxCell>
        <mxCell id="KVpj3WEin9Y6bcMQxTFN-2" value="" style="endArrow=none;dashed=1;html=1;rounded=0;" edge="1" parent="1">
          <mxGeometry width="50" height="50" relative="1" as="geometry">
            <mxPoint x="380" y="360" as="sourcePoint" />
            <mxPoint x="380" y="230" as="targetPoint" />
            <Array as="points">
              <mxPoint x="380" y="290" />
            </Array>
          </mxGeometry>
        </mxCell>
        <mxCell id="KVpj3WEin9Y6bcMQxTFN-3" value="" style="endArrow=none;dashed=1;html=1;rounded=0;" edge="1" parent="1">
          <mxGeometry width="50" height="50" relative="1" as="geometry">
            <mxPoint x="550" y="356" as="sourcePoint" />
            <mxPoint x="550" y="226" as="targetPoint" />
            <Array as="points">
              <mxPoint x="550" y="286" />
            </Array>
          </mxGeometry>
        </mxCell>
        <mxCell id="KVpj3WEin9Y6bcMQxTFN-4" value="&lt;font style=&quot;font-size: 14px&quot;&gt;0&lt;/font&gt;" style="text;html=1;strokeColor=none;fillColor=none;align=center;verticalAlign=middle;whiteSpace=wrap;rounded=0;" vertex="1" parent="1">
          <mxGeometry x="350" y="356" width="60" height="30" as="geometry" />
        </mxCell>
        <mxCell id="KVpj3WEin9Y6bcMQxTFN-6" value="$$\lambda$$" style="text;html=1;strokeColor=none;fillColor=none;align=center;verticalAlign=middle;whiteSpace=wrap;rounded=0;fontSize=13;" vertex="1" parent="1">
          <mxGeometry x="401" y="356" width="60" height="30" as="geometry" />
        </mxCell>
        <mxCell id="KVpj3WEin9Y6bcMQxTFN-7" value="$$\eta$$" style="text;html=1;strokeColor=none;fillColor=none;align=center;verticalAlign=middle;whiteSpace=wrap;rounded=0;fontSize=13;" vertex="1" parent="1">
          <mxGeometry x="461" y="354" width="60" height="30" as="geometry" />
        </mxCell>
        <mxCell id="KVpj3WEin9Y6bcMQxTFN-8" value="&lt;font style=&quot;font-size: 14px&quot;&gt;1&lt;/font&gt;" style="text;html=1;strokeColor=none;fillColor=none;align=center;verticalAlign=middle;whiteSpace=wrap;rounded=0;fontSize=13;" vertex="1" parent="1">
          <mxGeometry x="521" y="356" width="60" height="30" as="geometry" />
        </mxCell>
        <mxCell id="KVpj3WEin9Y6bcMQxTFN-12" value="$$ω_{0}$$" style="text;html=1;strokeColor=none;fillColor=none;align=center;verticalAlign=middle;whiteSpace=wrap;rounded=0;fontSize=13;" vertex="1" parent="1">
          <mxGeometry x="560" y="356" width="60" height="30" as="geometry" />
        </mxCell>
        <mxCell id="KVpj3WEin9Y6bcMQxTFN-13" value="" style="endArrow=none;html=1;rounded=0;fontSize=14;" edge="1" parent="1">
          <mxGeometry width="50" height="50" relative="1" as="geometry">
            <mxPoint x="380" y="250" as="sourcePoint" />
            <mxPoint x="550" y="250" as="targetPoint" />
          </mxGeometry>
        </mxCell>
        <mxCell id="KVpj3WEin9Y6bcMQxTFN-14" value="Charging time constraint" style="edgeLabel;html=1;align=center;verticalAlign=bottom;resizable=0;points=[];fontSize=14;horizontal=1;labelPosition=center;verticalLabelPosition=top;" vertex="1" connectable="0" parent="KVpj3WEin9Y6bcMQxTFN-13">
          <mxGeometry x="-0.1867" y="-2" relative="1" as="geometry">
            <mxPoint x="16" y="-7" as="offset" />
          </mxGeometry>
        </mxCell>
        <mxCell id="KVpj3WEin9Y6bcMQxTFN-15" value="" style="endArrow=none;html=1;rounded=0;fontSize=14;" edge="1" parent="1">
          <mxGeometry width="50" height="50" relative="1" as="geometry">
            <mxPoint x="380" y="280" as="sourcePoint" />
            <mxPoint x="490" y="280" as="targetPoint" />
          </mxGeometry>
        </mxCell>
        <mxCell id="KVpj3WEin9Y6bcMQxTFN-17" value="Latency constraint" style="edgeLabel;html=1;align=center;verticalAlign=middle;resizable=0;points=[];fontSize=14;" vertex="1" connectable="0" parent="KVpj3WEin9Y6bcMQxTFN-15">
          <mxGeometry x="-0.304" relative="1" as="geometry">
            <mxPoint x="24" y="-12" as="offset" />
          </mxGeometry>
        </mxCell>
        <mxCell id="KVpj3WEin9Y6bcMQxTFN-18" value="" style="endArrow=none;html=1;rounded=0;fontSize=14;" edge="1" parent="1">
          <mxGeometry width="50" height="50" relative="1" as="geometry">
            <mxPoint x="430" y="320" as="sourcePoint" />
            <mxPoint x="550" y="320" as="targetPoint" />
          </mxGeometry>
        </mxCell>
        <mxCell id="KVpj3WEin9Y6bcMQxTFN-19" value="Energy constraint" style="edgeLabel;html=1;align=center;verticalAlign=middle;resizable=0;points=[];fontSize=14;" vertex="1" connectable="0" parent="KVpj3WEin9Y6bcMQxTFN-18">
          <mxGeometry x="-0.1867" y="-1" relative="1" as="geometry">
            <mxPoint x="9" y="-12" as="offset" />
          </mxGeometry>
        </mxCell>
        <mxCell id="KVpj3WEin9Y6bcMQxTFN-20" value="" style="endArrow=none;dashed=1;html=1;rounded=0;fontSize=14;exitX=0.5;exitY=0;exitDx=0;exitDy=0;" edge="1" parent="1" source="KVpj3WEin9Y6bcMQxTFN-6">
          <mxGeometry width="50" height="50" relative="1" as="geometry">
            <mxPoint x="390" y="370" as="sourcePoint" />
            <mxPoint x="431" y="320" as="targetPoint" />
          </mxGeometry>
        </mxCell>
        <mxCell id="KVpj3WEin9Y6bcMQxTFN-21" value="" style="endArrow=none;dashed=1;html=1;rounded=0;fontSize=14;" edge="1" parent="1">
          <mxGeometry width="50" height="50" relative="1" as="geometry">
            <mxPoint x="491" y="360" as="sourcePoint" />
            <mxPoint x="491" y="280" as="targetPoint" />
          </mxGeometry>
        </mxCell>
        <mxCell id="KVpj3WEin9Y6bcMQxTFN-23" value="" style="rounded=0;whiteSpace=wrap;html=1;fontSize=14;fillColor=#dae8fc;strokeColor=#6c8ebf;" vertex="1" parent="1">
          <mxGeometry x="432" y="321" width="58" height="38" as="geometry" />
        </mxCell>
      </root>
    </mxGraphModel>
  </diagram>
</mxfile>
